PathFileType	4	(X/Y/Z)	..\data\2014014\dynamic\2014014_C4_05.trc
DataRate	CameraRate	NumFrames	NumMarkers	Units	OrigDataRate	OrigDataStartFrame	OrigNumFrames
100.000000	100.000000	4	52	mm	100.000000	112	180
Frame#	Time	L_IAS			L_IPS			R_IPS			R_IAS			L_FTC			L_FLE			L_FME			L_FAX			L_TTC			L_FAL			L_TAM			L_FCC			L_FM1			L_FM2			L_FM5			R_FTC			R_FLE			R_FME			R_FAX			R_TTC			R_FAL			R_TAM			R_FCC			R_FM1			R_FM2			R_FM5			CV7			TV10			SXS			SJN			L_SIA			L_SRS			L_SAA			L_SAE			L_HLE			L_HME			L_UOA			L_RSP			L_UHE			L_HM2			L_HM5			R_SIA			R_SRS			R_SAA			R_SAE			R_HLE			R_HME			R_UOA			R_RSP			R_UHE			R_HM2			R_HM5			
		X1	Y1	Z1	X2	Y2	Z2	X3	Y3	Z3	X4	Y4	Z4	X5	Y5	Z5	X6	Y6	Z6	X7	Y7	Z7	X8	Y8	Z8	X9	Y9	Z9	X10	Y10	Z10	X11	Y11	Z11	X12	Y12	Z12	X13	Y13	Z13	X14	Y14	Z14	X15	Y15	Z15	X16	Y16	Z16	X17	Y17	Z17	X18	Y18	Z18	X19	Y19	Z19	X20	Y20	Z20	X21	Y21	Z21	X22	Y22	Z22	X23	Y23	Z23	X24	Y24	Z24	X25	Y25	Z25	X26	Y26	Z26	X27	Y27	Z27	X28	Y28	Z28	X29	Y29	Z29	X30	Y30	Z30	X31	Y31	Z31	X32	Y32	Z32	X33	Y33	Z33	X34	Y34	Z34	X35	Y35	Z35	X36	Y36	Z36	X37	Y37	Z37	X38	Y38	Z38	X39	Y39	Z39	X40	Y40	Z40	X41	Y41	Z41	X42	Y42	Z42	X43	Y43	Z43	X44	Y44	Z44	X45	Y45	Z45	X46	Y46	Z46	X47	Y47	Z47	X48	Y48	Z48	X49	Y49	Z49	X50	Y50	Z50	X51	Y51	Z51	X52	Y52	Z52	

113	1.12	18.21680831909178	982.1799926757815	148.2269134521485	-195.3771209716798	998.9357910156252	203.6523132324219	-203.6865386962891	995.0942993164065	305.3566589355469	-12.36798954010015	972.560974121094	400.7661743164064	-46.24526596069337	887.0480957031252	67.85059356689455	61.65277099609375	491.7552185058595	116.1764526367188	65.3217315673828	481.2691040039064	254.3642272949219	64.10712432861328	431.1667785644532	113.0650253295899	138.2293243408203	442.7198791503907	161.7928924560547	196.3515014648438	76.05088043212892	125.4824447631837	214.1941528320313	113.6364517211914	219.8795928955079	170.40625	12.54419136047364	188.6748962402344	359.0039672851563	80.79771423339845	201.8547515869142	351.9721984863282	99.8364181518555	148.4341125488282	313.5562438964844	63.21177673339845	97.24338531494148	-96.82575225830087	870.2531738281252	449.7989807128907	-200.966766357422	478.3530273437501	361.7885131835938	-161.8796386718751	480.802215576172	238.4538726806641	-234.4515533447267	431.9268798828126	365.2694702148438	-168.1720275878907	405.0938720703126	320.5190429687501	-350.0404357910157	71.65897369384767	336.970458984375	-303.2710266113282	93.9864959716797	243.9210968017578	-385.7876892089845	35.92349243164063	270.4636535644531	-183.0791625976563	20.01935577392578	267.8051147460938	-183.2721862792969	35.46918869018555	327.1338806152344	-235.2629547119142	18.21627044677735	380.9046630859375	-133.6487274169922	1521.261108398438	274.0988464355469	-231.3547515869141	1278.089111328125	261.7456054687501	36.65288925170896	1241.306884765625	271.1614990234376	-8.046576499939	1425.577026367188	278.5828857421876	-252.6497955322266	1307.067626953125	160.3672027587891	-208.1997375488282	1451.197998046875	161.4729461669922	-167.3094787597657	1449.736938476563	97.99978637695314	-120.9132766723633	1444.20361328125	69.53047180175781	-187.8692779541016	1115.802612304688	-22.97277832031252	-218.8959045410157	1109.351318359375	67.34851074218749	-228.2234039306641	1102.238403320313	9.311733245849583	-147.009506225586	846.188903808594	13.58810997009276	-218.9079284667969	860.4945068359377	-37.33200836181644	-138.0251159667969	756.0633544921876	-2.38466143608095	-244.1326599121094	780.244323730469	-39.0091705322266	-246.6164703369142	1304.286743164063	389.7391967773438	-191.6534423828126	1443.649047851563	404.2170715332032	-147.6969146728516	1426.563110351563	471.6992187500001	-99.16612243652352	1423.07470703125	488.7363281250001	-63.13942718505868	1088.967895507813	580.6493530273439	-98.4400177001954	1065.445556640625	484.8956298828126	-103.2403488159181	1057.8203125	553.4266357421876	90.90599060058589	871.3218994140627	515.8639526367189	30.93385505676263	854.1949462890627	584.5261840820314	150.491714477539	795.2456665039065	540.0342407226564	50.09754562377924	756.9979248046876	577.0404052734376	
114	1.13	29.9000015258789	979.9751586914065	147.709701538086	-183.7097167968751	996.801696777344	203.0195922851563	-192.0650329589845	993.4086914062502	304.5529174804688	-0.9588578343391911	971.0876464843752	400.527557373047	-34.71709060668947	884.6837158203127	67.5356903076172	72.02033233642578	489.6946411132814	117.9526062011719	74.12909698486327	479.1859436035157	256.3643798828126	75.83878326416016	429.5404052734376	114.384750366211	149.2123870849609	442.2570190429689	164.6693878173829	215.0083160400391	76.8152313232422	125.5413970947266	231.3074645996094	114.4834823608399	220.3056945800782	189.2439422607422	12.28805446624756	187.9123229980469	376.6909484863282	84.47557830810548	204.5709686279298	370.3310852050782	103.2316055297852	151.0092773437501	333.4008789062501	65.90672302246095	99.16769409179695	-86.11531829833991	869.2454223632815	449.7011718750001	-193.656707763672	478.2837219238282	362.0616455078126	-153.6646270751954	479.9225463867189	238.8138427734375	-227.799285888672	432.2305603027345	365.4046325683594	-161.6983795166016	404.3333435058595	320.9855957031251	-349.324920654297	73.69054412841798	337.0906372070312	-301.8998413085939	95.58214569091798	244.1998138427735	-385.4165344238283	38.61509323120118	270.2782287597656	-183.0128631591797	20.24120903015137	267.9200134277344	-183.1905975341797	35.55698394775391	327.2023925781251	-235.2982940673829	18.36768913269043	380.8836975097656	-122.2683334350587	1519.475341796875	272.6282043457032	-219.9143066406251	1276.3681640625	260.7218933105469	48.12890243530271	1239.536254882813	270.3245849609376	3.439810991287199	1423.829223632813	277.3792114257813	-241.4725799560548	1305.402221679688	159.9051208496094	-196.7102661132813	1449.21044921875	160.1484985351562	-155.9026184082032	1447.578125	96.76294708251955	-109.5176162719727	1441.958374023438	68.27877807617188	-177.0789489746094	1113.553100585938	-23.56149673461917	-207.8096771240235	1107.170776367188	66.90576171874999	-217.3209686279297	1100.138793945313	8.908840179443335	-138.2261505126953	843.6378173828127	13.06741809844969	-209.7029571533204	858.5206298828127	-37.9038124084473	-129.8277130126953	753.3648681640626	-2.869246482849138	-235.6074676513672	778.4607543945315	-39.45063781738285	-235.1897735595704	1302.597412109375	388.5533447265626	-180.2542724609376	1442.1640625	403.0203857421876	-136.254852294922	1425.154052734375	470.4915771484376	-87.73605346679695	1421.669311523438	487.4903564453126	-51.46361923217782	1088.068481445313	580.4646606445314	-86.58200073242195	1064.097534179688	484.7684631347657	-91.49405670166024	1056.624145507813	553.2617797851564	104.1546401977539	871.3592529296877	516.4778442382814	43.83586502075189	853.7818603515627	584.9157714843751	163.9935760498047	795.759704589844	541.1257934570314	63.72241210937494	756.7088012695314	577.5678710937501	
115	1.14	41.76435089111327	977.9768066406252	147.0984191894532	-171.8697052001954	994.8520507812502	202.3989868164063	-180.2457885742188	991.8516845703127	303.7621459960938	10.70093250274653	969.688415527344	400.2288513183595	-22.93109893798829	882.6279296875002	67.15879821777345	82.90583801269531	487.9176635742189	119.3216171264649	83.61235046386717	477.4310607910157	257.8604736328126	87.60287475585938	428.0340881347657	115.3944854736329	160.3207092285156	441.5918884277345	167.0327911376954	231.0391693115235	77.08794403076173	125.9272155761719	246.1282043457032	114.7150115966797	221.0091705322266	205.0616760253907	12.04941177368164	187.6193847656251	391.7615661621095	86.50117492675783	207.4232177734376	386.1346435546876	104.9438781738282	153.6886596679688	350.3500061035157	67.1627883911133	101.3719558715821	-75.18914031982429	868.3138427734377	449.526824951172	-185.9126281738282	478.2438354492189	362.4468688964844	-145.0788574218751	479.0440063476564	239.266586303711	-220.7357330322267	432.5858764648439	365.6536865234376	-154.8725738525391	403.6027221679689	321.5409851074219	-348.4925842285157	76.00532531738283	337.4565734863281	-300.484344482422	97.39560699462893	244.7139129638672	-385.0665893554689	41.67886352539063	270.3849182128906	-182.9299621582032	20.46153068542481	268.0221252441407	-183.0861206054688	35.65996932983399	327.2745971679688	-235.2623901367189	18.47038650512696	380.8843383789062	-110.8615646362305	1517.786376953125	271.0814819335938	-208.3851318359376	1274.69580078125	259.6704711914063	59.70877456665037	1237.908203125	269.3737182617188	14.96834850311276	1422.204467773438	276.0797729492188	-230.2322082519532	1303.80322265625	159.4159088134766	-185.1825256347657	1447.290649414063	158.7148895263672	-144.453353881836	1445.50439453125	95.43167877197266	-98.06671142578129	1439.813842773438	66.94033050537109	-165.997299194336	1111.35107421875	-24.27336883544925	-196.5255279541016	1105.033935546875	66.3014450073242	-206.1507415771485	1098.0771484375	8.33814716339109	-128.8757019042969	841.1866455078127	12.4579734802246	-200.0467681884766	856.5884399414065	-38.58863449096683	-121.1219558715821	750.7518920898439	-3.433164119720475	-226.5650329589844	776.703796386719	-40.04596710205082	-223.7174682617189	1300.96435546875	387.2723693847657	-168.8397521972657	1440.741333007813	401.716766357422	-124.8023681640626	1423.8125	469.1823120117189	-76.29795074462898	1420.338989257813	486.1541442871095	-39.92720031738289	1087.226196289063	580.1342773437501	-74.81129455566413	1062.839233398438	484.472869873047	-79.88815307617196	1055.512329101563	552.9349365234376	117.0792083740234	871.3117675781252	517.0158081054689	56.39129257202143	853.347106933594	585.2146606445314	177.0863494873047	796.132019042969	542.1540527343751	76.89765930175776	756.3850097656251	578.0109252929689	
116	1.15	53.83111190795898	976.248474121094	146.3970184326172	-159.8420104980469	993.1269531250002	201.7856903076172	-168.2104034423829	990.4368896484377	302.9842834472657	22.62955665588374	968.3836059570315	399.8576660156251	-10.85704708099366	880.9377441406252	66.71517181396486	94.26993560791016	486.4277648925782	120.2480163574219	93.82253265380858	476.0095520019532	258.8174743652344	99.37364959716798	426.6332092285157	116.063591003418	171.5691833496094	440.7209777832032	168.7769012451172	244.5946655273438	76.77791595458986	126.578483581543	258.7971191406251	114.2552871704102	221.9271240234376	217.9852905273438	11.78314971923828	187.7446594238282	404.3901367187501	86.73631286621095	210.3265075683595	399.5556945800782	104.8265228271485	156.3890991210938	364.5405883789063	66.83372497558595	103.7678146362305	-64.02027893066413	867.4609375000002	449.2578430175782	-177.6956176757813	478.2302551269532	362.9533691406251	-136.1020507812501	478.1720581054689	239.8128662109375	-213.2344207763673	432.9953918457032	366.0322570800782	-147.6668853759766	402.8999938964845	322.1998901367188	-347.5166931152345	78.61627197265626	338.0787658691406	-298.9904785156251	99.42942047119143	245.4805603027344	-384.705780029297	45.14044189453126	270.8082580566406	-182.8257446289063	20.64978218078614	268.1027221679688	-182.9540252685547	35.75923156738282	327.3484191894532	-235.1571197509767	18.49610328674317	380.9016723632812	-99.43101501464849	1516.21875	269.4624023437501	-196.7591400146485	1273.092041015625	258.6011657714844	71.39957427978514	1236.455810546875	268.3106079101563	26.5371398925781	1420.732788085938	274.6853027343751	-218.915267944336	1302.271484375	158.8828277587891	-173.6243591308594	1445.4560546875	157.1868591308594	-132.97216796875	1443.534912109375	94.01329040527344	-86.57420349121097	1437.79052734375	65.51966094970703	-154.626449584961	1109.215209960938	-25.10059928894045	-185.0404510498047	1102.957641601563	65.54875183105467	-194.7130737304688	1096.06982421875	7.61171245574949	-118.9504776000977	838.8524169921877	11.75746726989745	-189.9313354492188	854.7124023437502	-39.38306808471683	-111.8849182128907	748.2435302734376	-4.083331584930434	-216.9927825927735	774.9881591796877	-40.79484558105472	-212.1941833496095	1299.414794921875	385.9098510742189	-157.4087066650391	1439.407958984375	400.3097534179689	-113.3364562988282	1422.568969726563	467.7752990722657	-64.84825897216804	1419.115966796875	484.7312927246095	-28.54147529602059	1086.469848632813	579.6668090820314	-63.1366043090821	1061.698120117188	484.0084533691407	-68.4297637939454	1054.515258789063	552.4497680664064	129.6591491699218	871.189636230469	517.4727172851564	68.58640289306635	852.9082641601565	585.4194335937501	189.755142211914	796.3706665039065	543.1149902343751	89.60401916503901	756.0403442382814	578.3681640625001	
